<svg width="46" height="46" viewBox="0 0 46 46" fill="none" xmlns="http://www.w3.org/2000/svg">
<path fill-rule="evenodd" clip-rule="evenodd" d="M18.8983 21.7478L16.2843 0C18.046 3.1793 21.9409 13.0363 22.0592 19.3175C22.0869 20.7891 22.0311 22.1736 21.9224 23.4633L29.3501 27.6769C28.1703 27.9269 25.353 27.9017 21.543 26.5819C21.2327 28.5453 20.8409 30.1988 20.532 31.5024C20.4164 31.9902 20.3124 32.429 20.2287 32.8167L19.3769 25.7304C18.4296 25.3142 17.4366 24.8208 16.4057 24.2382C10.0413 20.6415 2.81674 13.9322 0 11.0272L18.8983 21.7478ZM21.671 24.6191C21.671 25.2465 21.1498 25.7551 20.5068 25.7551C19.8639 25.7551 19.3427 25.2465 19.3427 24.6191C19.3427 23.9917 19.8639 23.483 20.5068 23.483C21.1498 23.483 21.671 23.9917 21.671 24.6191ZM43.6502 27.6153C45.6555 28.6886 46.365 31.1587 45.2348 33.1325C44.1046 35.1064 41.5628 35.8364 39.5574 34.7631L32.4607 30.9647C30.4554 29.8915 29.7459 27.4213 30.8761 25.4475C32.0063 23.4736 34.5481 22.7436 36.5534 23.8169L43.6502 27.6153ZM43.4715 32.1888C44.0528 31.1735 43.6879 29.9029 42.6564 29.3509L35.5596 25.5525C34.5282 25.0005 33.2207 25.376 32.6394 26.3912C32.0581 27.4065 32.423 28.6771 33.4545 29.2291L40.5512 33.0275C41.5827 33.5795 42.8901 33.204 43.4715 32.1888ZM16.9975 41.3125C18.1398 43.1482 20.623 43.7617 22.5552 42.6378C24.4875 41.5139 25.0903 39.1055 23.948 37.2698C22.8057 35.4341 20.3225 34.8206 18.3903 35.9445C16.458 37.0684 15.8552 39.4768 16.9975 41.3125ZM23.6119 44.3359C20.7507 46.0001 17.0102 45.1168 15.2687 42.3181C13.5272 39.5194 14.4724 35.9106 17.3336 34.2464C20.1948 32.5822 23.9353 33.4655 25.6768 36.2642C27.4183 39.0629 26.4731 42.6717 23.6119 44.3359Z" fill="white"/>
</svg>
