<svg width="48" height="48" viewBox="0 0 48 48" fill="none" xmlns="http://www.w3.org/2000/svg">
<path fill-rule="evenodd" clip-rule="evenodd" d="M12.2019 2.91382C7.08991 2.91382 2.92041 7.12451 2.92041 12.3503V17.1456C2.92041 17.6979 2.47269 18.1456 1.92041 18.1456C1.36813 18.1456 0.92041 17.6979 0.92041 17.1456V12.3503C0.92041 6.04826 5.95723 0.913818 12.2019 0.913818C18.4465 0.913818 23.4833 6.04826 23.4833 12.3503V16.9072H40.6946C41.4903 16.9072 42.2533 17.2233 42.8159 17.7859L46.2139 21.1838C46.7765 21.7464 47.0926 22.5095 47.0926 23.3052V44.086C47.0926 45.7429 45.7494 47.086 44.0926 47.086H16.8674C15.2106 47.086 13.8674 45.7429 13.8674 44.086V23.3052C13.8674 22.5095 14.1835 21.7464 14.7461 21.1838L18.1441 17.7859C18.7067 17.2233 19.4697 16.9072 20.2654 16.9072H21.4833V12.3503C21.4833 7.12451 17.3138 2.91382 12.2019 2.91382ZM20.2654 18.9072C20.0002 18.9072 19.7458 19.0126 19.5583 19.2001L16.1603 22.5981C15.9728 22.7856 15.8674 23.0399 15.8674 23.3052V44.086C15.8674 44.6383 16.3151 45.086 16.8674 45.086H44.0926C44.6449 45.086 45.0926 44.6383 45.0926 44.086V23.3052C45.0926 23.0399 44.9872 22.7856 44.7997 22.5981L41.4017 19.2001C41.2142 19.0126 40.9598 18.9072 40.6946 18.9072H20.2654ZM33.9071 30.6126C33.9071 32.1675 32.9247 33.49 31.5543 33.978C31.5579 34.0157 31.5598 34.0538 31.5598 34.0924V37.3918C31.5598 38.04 31.0343 38.5655 30.3861 38.5655C29.7379 38.5655 29.2124 38.04 29.2124 37.3918V34.0924C29.2124 34.0538 29.2143 34.0157 29.2179 33.978C27.8475 33.49 26.8651 32.1675 26.8651 30.6126C26.8651 28.643 28.4415 27.0463 30.3861 27.0463C32.3307 27.0463 33.9071 28.643 33.9071 30.6126Z" fill="#999999"/>
</svg>
