<svg width="47" height="48" viewBox="0 0 47 48" fill="none" xmlns="http://www.w3.org/2000/svg">
<path fill-rule="evenodd" clip-rule="evenodd" d="M12.0285 2.91382C6.91657 2.91382 2.74707 7.12451 2.74707 12.3503V17.1456C2.74707 17.6979 2.29936 18.1456 1.74707 18.1456C1.19479 18.1456 0.74707 17.6979 0.74707 17.1456V12.3503C0.74707 6.04826 5.7839 0.913818 12.0285 0.913818C18.2732 0.913818 23.31 6.04826 23.31 12.3503V16.9072H40.5213C41.3169 16.9072 42.08 17.2233 42.6426 17.7859L46.0406 21.1838C46.6032 21.7464 46.9193 22.5095 46.9193 23.3052V44.086C46.9193 45.7429 45.5761 47.086 43.9193 47.086H16.6941C15.0372 47.086 13.6941 45.7429 13.6941 44.086V23.3052C13.6941 22.5095 14.0102 21.7464 14.5728 21.1838L17.9707 17.7859C18.5333 17.2233 19.2964 16.9072 20.0921 16.9072H21.31V12.3503C21.31 7.12451 17.1405 2.91382 12.0285 2.91382ZM20.0921 18.9072C19.8268 18.9072 19.5725 19.0126 19.3849 19.2001L15.987 22.5981C15.7994 22.7856 15.6941 23.0399 15.6941 23.3052V44.086C15.6941 44.6383 16.1418 45.086 16.6941 45.086H43.9193C44.4715 45.086 44.9193 44.6383 44.9193 44.086V23.3052C44.9193 23.0399 44.8139 22.7856 44.6264 22.5981L41.2284 19.2001C41.0409 19.0126 40.7865 18.9072 40.5213 18.9072H20.0921ZM33.7338 30.6126C33.7338 32.1675 32.7514 33.49 31.381 33.978C31.3846 34.0157 31.3865 34.0538 31.3865 34.0924V37.3918C31.3865 38.04 30.861 38.5655 30.2128 38.5655C29.5646 38.5655 29.0391 38.04 29.0391 37.3918V34.0924C29.0391 34.0538 29.041 34.0157 29.0446 33.978C27.6742 33.49 26.6917 32.1675 26.6917 30.6126C26.6917 28.643 28.2681 27.0463 30.2128 27.0463C32.1574 27.0463 33.7338 28.643 33.7338 30.6126Z" fill="white"/>
</svg>
