<svg width="47" height="46" viewBox="0 0 47 46" fill="none" xmlns="http://www.w3.org/2000/svg">
<path fill-rule="evenodd" clip-rule="evenodd" d="M16.5657 0H29.7845C30.8891 0 31.7845 0.895431 31.7845 2V8.37499H37.5241H45.177C45.7292 8.37499 46.177 8.82271 46.177 9.37499C46.177 9.92728 45.7292 10.375 45.177 10.375H38.5241V42.9996C38.5241 44.6564 37.1809 45.9996 35.5241 45.9996H10.8261C9.1692 45.9996 7.82605 44.6564 7.82605 42.9996V10.375H1.17334C0.621055 10.375 0.17334 9.92728 0.17334 9.37499C0.17334 8.82271 0.621055 8.37499 1.17334 8.37499H8.82605H14.5657V2C14.5657 0.895431 15.4611 0 16.5657 0ZM9.82605 10.375H36.5241V42.9996C36.5241 43.5518 36.0763 43.9996 35.5241 43.9996H29.3088V17.2498C29.3088 16.6975 28.8611 16.2498 28.3088 16.2498C27.7566 16.2498 27.3088 16.6975 27.3088 17.2498V43.9996H19.0414V17.2498C19.0414 16.6975 18.5937 16.2498 18.0414 16.2498C17.4891 16.2498 17.0414 16.6975 17.0414 17.2498V43.9996H10.8261C10.2738 43.9996 9.82605 43.5518 9.82605 42.9996V10.375Z" fill="#999999"/>
</svg>
