<svg width="47" height="46" viewBox="0 0 47 46" fill="none" xmlns="http://www.w3.org/2000/svg">
<path fill-rule="evenodd" clip-rule="evenodd" d="M19.0716 21.7478L16.4577 0C18.2193 3.1793 22.1142 13.0363 22.2325 19.3175C22.2602 20.7891 22.2044 22.1736 22.0957 23.4633L29.5234 27.6769C28.3437 27.9269 25.5263 27.9017 21.7163 26.5819C21.406 28.5453 21.0142 30.1988 20.7053 31.5024C20.5897 31.9902 20.4858 32.429 20.402 32.8167L19.5503 25.7304C18.603 25.3142 17.61 24.8208 16.579 24.2382C10.2146 20.6415 2.99008 13.9322 0.17334 11.0272L19.0716 21.7478ZM21.8443 24.6191C21.8443 25.2465 21.3231 25.7551 20.6802 25.7551C20.0372 25.7551 19.516 25.2465 19.516 24.6191C19.516 23.9917 20.0372 23.483 20.6802 23.483C21.3231 23.483 21.8443 23.9917 21.8443 24.6191ZM43.8235 27.6153C45.8289 28.6886 46.5383 31.1587 45.4081 33.1325C44.2779 35.1064 41.7361 35.8364 39.7308 34.7631L32.634 30.9647C30.6287 29.8915 29.9193 27.4213 31.0494 25.4475C32.1796 23.4736 34.7214 22.7436 36.7268 23.8169L43.8235 27.6153ZM43.6448 32.1888C44.2261 31.1735 43.8612 29.9029 42.8297 29.3509L35.733 25.5525C34.7015 25.0005 33.3941 25.376 32.8128 26.3912C32.2314 27.4065 32.5963 28.6771 33.6278 29.2291L40.7246 33.0275C41.756 33.5795 43.0635 33.204 43.6448 32.1888ZM17.1708 41.3125C18.3131 43.1482 20.7963 43.7617 22.7285 42.6378C24.6608 41.5139 25.2636 39.1055 24.1213 37.2698C22.9791 35.4341 20.4959 34.8206 18.5636 35.9445C16.6314 37.0684 16.0286 39.4768 17.1708 41.3125ZM23.7852 44.3359C20.924 46.0001 17.1835 45.1168 15.442 42.3181C13.7005 39.5194 14.6458 35.9106 17.507 34.2464C20.3682 32.5822 24.1086 33.4655 25.8502 36.2642C27.5917 39.0629 26.6464 42.6717 23.7852 44.3359Z" fill="#999999"/>
</svg>
