<svg width="47" height="46" viewBox="0 0 47 46" fill="none" xmlns="http://www.w3.org/2000/svg">
<path fill-rule="evenodd" clip-rule="evenodd" d="M16.3924 0H29.6112C30.7157 0 31.6112 0.895431 31.6112 2V8.37499H37.3507H45.0036C45.5559 8.37499 46.0036 8.82271 46.0036 9.37499C46.0036 9.92728 45.5559 10.375 45.0036 10.375H38.3507V42.9996C38.3507 44.6564 37.0076 45.9996 35.3507 45.9996H10.6527C8.99586 45.9996 7.65271 44.6564 7.65271 42.9996V10.375H1C0.447715 10.375 0 9.92728 0 9.37499C0 8.82271 0.447715 8.37499 1 8.37499H8.65271H14.3924V2C14.3924 0.895431 15.2878 0 16.3924 0ZM9.65271 10.375H36.3507V42.9996C36.3507 43.5518 35.903 43.9996 35.3507 43.9996H29.1355V17.2498C29.1355 16.6975 28.6878 16.2498 28.1355 16.2498C27.5832 16.2498 27.1355 16.6975 27.1355 17.2498V43.9996H18.868V17.2498C18.868 16.6975 18.4203 16.2498 17.868 16.2498C17.3158 16.2498 16.868 16.6975 16.868 17.2498V43.9996H10.6527C10.1004 43.9996 9.65271 43.5518 9.65271 42.9996V10.375Z" fill="white"/>
</svg>
